<svg width="41" height="40" viewBox="0 0 41 40" fill="none" xmlns="http://www.w3.org/2000/svg">
<circle cx="20.5" cy="20" r="20" fill="#D9D9D9" fill-opacity="0.1"/>
<circle cx="20.5" cy="20" r="19.75" stroke="white" stroke-opacity="0.5" stroke-width="0.5"/>
<path d="M21.793 15.2928C21.9805 15.1053 22.2348 15 22.5 15C22.7652 15 23.0195 15.1053 23.207 15.2928L27.707 19.7928C27.8945 19.9803 27.9998 20.2346 27.9998 20.4998C27.9998 20.765 27.8945 21.0193 27.707 21.2068L23.207 25.7068C23.0184 25.8889 22.7658 25.9897 22.5036 25.9875C22.2414 25.9852 21.9906 25.88 21.8052 25.6946C21.6198 25.5092 21.5146 25.2584 21.5123 24.9962C21.51 24.734 21.6108 24.4814 21.793 24.2928L24.5 21.4998H15C14.7348 21.4998 14.4804 21.3944 14.2929 21.2069C14.1054 21.0194 14 20.765 14 20.4998C14 20.2346 14.1054 19.9802 14.2929 19.7927C14.4804 19.6051 14.7348 19.4998 15 19.4998H24.5L21.793 16.7068C21.6055 16.5193 21.5002 16.265 21.5002 15.9998C21.5002 15.7346 21.6055 15.4803 21.793 15.2928Z" fill="white" fill-opacity="0.8"/>
</svg>
