<?xml version="1.0" encoding="utf-8"?>
<!-- Generator: Adobe Illustrator 29.7.1, SVG Export Plug-In . SVG Version: 9.03 Build 0)  -->
<svg version="1.1" id="레이어_1" xmlns="http://www.w3.org/2000/svg" xmlns:xlink="http://www.w3.org/1999/xlink" x="0px"
	 y="0px" viewBox="0 0 36 36" style="enable-background:new 0 0 36 36;" xml:space="preserve">
<g>
	<path d="M18,33.8C9.3,33.8,2.2,26.7,2.2,18S9.3,2.2,18,2.2S33.8,9.3,33.8,18S26.7,33.8,18,33.8 M18,36c9.9,0,18-8.1,18-18
		S27.9,0,18,0S0,8.1,0,18S8.1,36,18,36"/>
	<path d="M11.2,14.1c0-1.6,1.3-2.8,2.8-2.8s2.8,1.3,2.8,2.8v7.9c0,1.6-1.3,2.8-2.8,2.8s-2.8-1.3-2.8-2.8V14.1z M19.1,14.1
		c0-1.6,1.3-2.8,2.8-2.8s2.8,1.3,2.8,2.8v7.9c0,1.6-1.3,2.8-2.8,2.8s-2.8-1.3-2.8-2.8V14.1z"/>
</g>
</svg>
