<?xml version="1.0" encoding="utf-8"?>
<!-- Generator: Adobe Illustrator 29.7.1, SVG Export Plug-In . SVG Version: 9.03 Build 0)  -->
<svg version="1.1" id="레이어_1" xmlns="http://www.w3.org/2000/svg" xmlns:xlink="http://www.w3.org/1999/xlink" x="0px"
	 y="0px" viewBox="0 0 36 36" style="enable-background:new 0 0 36 36;" xml:space="preserve">
<g>
	<path d="M18,33.8C9.3,33.8,2.2,26.7,2.2,18S9.3,2.2,18,2.2S33.8,9.3,33.8,18S26.7,33.8,18,33.8 M18,36c9.9,0,18-8.1,18-18
		S27.9,0,18,0S0,8.1,0,18S8.1,36,18,36"/>
	<path d="M14.1,11.4c0.4-0.2,0.8-0.2,1.2,0.1l7.9,5.6c0.5,0.4,0.6,1.1,0.3,1.6c-0.1,0.1-0.2,0.2-0.3,0.3l-7.9,5.6
		c-0.5,0.4-1.2,0.2-1.6-0.3c-0.1-0.2-0.2-0.4-0.2-0.7V12.4C13.5,12,13.7,11.6,14.1,11.4"/>
</g>
</svg>
